# xmcd CD database file generated by Grip 2.96
# 
# Track frame offsets:
#       183
#       9465
#       21140
#       33678
#       43975
#       56680
#       69720
#       80658
#       93858
#       107488
#       120378
#       131075
#       142348
#       156793
#       168380
#       186283
#       196930
# 
# Disc length: 2822 seconds
# 
# Revision: 0
# Processed by: cddbd v1.4PL0 Copyright (c) Steve Scherf et al.
# Submitted via: Grip 2.96
# 
DISCID=f00b0411
DTITLE=Frankie Laine - 16 Greatest Hits
DYEAR=1900
DGENRE=
TTITLE0=Rawhide
TTITLE1=Mule Train
TTITLE2=High Noon
TTITLE3=I Believe
TTITLE4=Granada
TTITLE5=Moonlight Gambler
TTITLE6=Humming Bird
TTITLE7=Wheel Of Fortune
TTITLE8=That's My Desire
TTITLE9=Rain Rain Rain
TTITLE10=Sixteen Tons
TTITLE11=Answer Me
TTITLE12=There Must Be A Reason
TTITLE13=Strange Lady In Town
TTITLE14=You Gave Me A Mountain
TTITLE15=A Woman In Love
TTITLE16=Jezebel
EXTD=
EXTT0=
EXTT1=
EXTT2=
EXTT3=
EXTT4=
EXTT5=
EXTT6=
EXTT7=
EXTT8=
EXTT9=
EXTT10=
EXTT11=
EXTT12=
EXTT13=
EXTT14=
EXTT15=
EXTT16=
PLAYORDER=
